<svg width="64" height="64" viewBox="0 0 64 64" fill="none" xmlns="http://www.w3.org/2000/svg">
<path d="M20.5 13C11.9396 13 5 19.9396 5 28.5C5 36.8931 11.671 43.7281 20 43.9921H35.3367V24C33.4085 17.6342 27.4954 13 20.5 13Z" fill="#FFDF6D" stroke="black" stroke-width="2" stroke-linecap="round"/>
<path d="M28 51.0375H50C60.5 51.0375 62.5 36.5375 51.5 36.5375C51.5 31.5 48.5 29.0375 46.5 29.0375C46 25.0375 40 24 38.5 24C37 24 32 25.5 32 29.0375C29.2 29.0375 28.1667 34.0375 28 36.5375C25.3333 36.5375 20 37.8375 20 43.0375C20 48.2375 24 51.0375 28 51.0375Z" fill="#DEE3FF"/>
<path d="M23.5 43.0375C23.5 44.3583 24.4 47.1 28 47.5M50 51.0375H28C24 51.0375 20 48.2375 20 43.0375C20 37.8375 25.3333 36.5375 28 36.5375C28.1667 34.0375 29.2 29.0375 32 29.0375C32 25.5 37 24 38.5 24C40 24 46 25.0375 46.5 29.0375C48.5 29.0375 51.5 31.5 51.5 36.5375C62.5 36.5375 60.5 51.0375 50 51.0375Z" stroke="black" stroke-width="2" stroke-linecap="round"/>
</svg>
