<svg width="64" height="64" viewBox="0 0 64 64" fill="none" xmlns="http://www.w3.org/2000/svg">
<path d="M21 34.0375H43C53.5 34.0375 55.5 19.5375 44.5 19.5375C44.5 14.5 41.5 12.0375 39.5 12.0375C39 8.03748 33 7.00001 31.5 7C30 6.99999 25 8.5 25 12.0375C22.2 12.0375 21.1667 17.0375 21 19.5375C18.3333 19.5375 13 20.8375 13 26.0375C13 31.2375 17 34.0375 21 34.0375Z" fill="#DEE3FF"/>
<path d="M16.5 26.0375C16.5 27.3583 17.4 30.1 21 30.5M43 34.0375H21C17 34.0375 13 31.2375 13 26.0375C13 20.8375 18.3333 19.5375 21 19.5375C21.1667 17.0375 22.2 12.0375 25 12.0375C25 8.5 30 6.99999 31.5 7C33 7.00001 39 8.03748 39.5 12.0375C41.5 12.0375 44.5 14.5 44.5 19.5375C55.5 19.5375 53.5 34.0375 43 34.0375Z" stroke="black" stroke-width="2" stroke-linecap="round"/>
<path d="M19.934 37L18.4914 40.7308M17.4095 43.529L16.1473 46.7934M15.2457 49.1252L14.1638 51.9233M12.9016 55.1878L12 57.5196" stroke="black" stroke-width="2" stroke-linecap="round"/>
<path d="M19.934 37L18.4914 40.7308M17.4095 43.529L16.1473 46.7934M15.2457 49.1252L14.1638 51.9233M12.9016 55.1878L12 57.5196" stroke="black" stroke-width="2" stroke-linecap="round"/>
<path d="M25.934 37L24.4914 40.7308M23.4095 43.529L22.1473 46.7934M21.2457 49.1252L20.1638 51.9233M18.9016 55.1878L18 57.5196" stroke="black" stroke-width="2" stroke-linecap="round"/>
<path d="M31.934 37L30.4914 40.7308M29.4095 43.529L28.1473 46.7934M27.2457 49.1252L26.1638 51.9233M24.9016 55.1878L24 57.5196" stroke="black" stroke-width="2" stroke-linecap="round"/>
<path d="M37.934 37L36.4914 40.7308M35.4095 43.529L34.1473 46.7934M33.2457 49.1252L32.1638 51.9233M30.9016 55.1878L30 57.5196" stroke="black" stroke-width="2" stroke-linecap="round"/>
<path d="M43.934 37L42.4914 40.7308M41.4095 43.529L40.1473 46.7934M39.2457 49.1252L38.1638 51.9233M36.9016 55.1878L36 57.5196" stroke="black" stroke-width="2" stroke-linecap="round"/>
</svg>
