<svg width="64" height="64" viewBox="0 0 64 64" fill="none" xmlns="http://www.w3.org/2000/svg">
<path d="M21 34.0375H43C53.5 34.0375 55.5 19.5375 44.5 19.5375C44.5 14.5 41.5 12.0375 39.5 12.0375C39 8.03748 33 7.00001 31.5 7C30 6.99999 25 8.5 25 12.0375C22.2 12.0375 21.1667 17.0375 21 19.5375C18.3333 19.5375 13 20.8375 13 26.0375C13 31.2375 17 34.0375 21 34.0375Z" fill="#DEE3FF"/>
<path d="M16.5 26.0375C16.5 27.3583 17.4 30.1 21 30.5M43 34.0375H21C17 34.0375 13 31.2375 13 26.0375C13 20.8375 18.3333 19.5375 21 19.5375C21.1667 17.0375 22.2 12.0375 25 12.0375C25 8.5 30 6.99999 31.5 7C33 7.00001 39 8.03748 39.5 12.0375C41.5 12.0375 44.5 14.5 44.5 19.5375C55.5 19.5375 53.5 34.0375 43 34.0375Z" stroke="black" stroke-width="2" stroke-linecap="round"/>
<path d="M20 43.5V41M20 43.5L17 42.5M20 43.5L23 42.5M20 43.5L17.5 46M20 43.5L22.5 46" stroke="black" stroke-width="2" stroke-linecap="round"/>
<path d="M32 43.5V41M32 43.5L29 42.5M32 43.5L35 42.5M32 43.5L29.5 46M32 43.5L34.5 46" stroke="black" stroke-width="2" stroke-linecap="round"/>
<path d="M44 43.5V41M44 43.5L41 42.5M44 43.5L47 42.5M44 43.5L41.5 46M44 43.5L46.5 46" stroke="black" stroke-width="2" stroke-linecap="round"/>
<path d="M25 53.5V51M25 53.5L22 52.5M25 53.5L28 52.5M25 53.5L22.5 56M25 53.5L27.5 56" stroke="black" stroke-width="2" stroke-linecap="round"/>
<path d="M37 53.5V51M37 53.5L34 52.5M37 53.5L40 52.5M37 53.5L34.5 56M37 53.5L39.5 56" stroke="black" stroke-width="2" stroke-linecap="round"/>
<path d="M49 53.5V51M49 53.5L46 52.5M49 53.5L52 52.5M49 53.5L46.5 56M49 53.5L51.5 56" stroke="black" stroke-width="2" stroke-linecap="round"/>
</svg>
