<svg width="64" height="64" viewBox="0 0 64 64" fill="none" xmlns="http://www.w3.org/2000/svg">
<path d="M21 34.0375H43C53.5 34.0375 55.5 19.5375 44.5 19.5375C44.5 14.5 41.5 12.0375 39.5 12.0375C39 8.03748 33 7.00001 31.5 7C30 6.99999 25 8.5 25 12.0375C22.2 12.0375 21.1667 17.0375 21 19.5375C18.3333 19.5375 13 20.8375 13 26.0375C13 31.2375 17 34.0375 21 34.0375Z" fill="#DEE3FF"/>
<path d="M16.5 26.0375C16.5 27.3583 17.4 30.1 21 30.5M43 34.0375H21C17 34.0375 13 31.2375 13 26.0375C13 20.8375 18.3333 19.5375 21 19.5375C21.1667 17.0375 22.2 12.0375 25 12.0375C25 8.5 30 6.99999 31.5 7C33 7.00001 39 8.03748 39.5 12.0375C41.5 12.0375 44.5 14.5 44.5 19.5375C55.5 19.5375 53.5 34.0375 43 34.0375Z" stroke="black" stroke-width="2" stroke-linecap="round"/>
<path d="M19.934 37L18.4914 40.7308M17.4095 43.529L16.1473 46.7934M15.2457 49.1252L14.1638 51.9233M12.9016 55.1878L12 57.5196" stroke="black" stroke-width="2" stroke-linecap="round"/>
<path d="M19.934 37L18.4914 40.7308M17.4095 43.529L16.1473 46.7934M15.2457 49.1252L14.1638 51.9233M12.9016 55.1878L12 57.5196" stroke="black" stroke-width="2" stroke-linecap="round"/>
<path d="M48.934 37L47.4914 40.7308M46.4095 43.529L45.1473 46.7934M44.2457 49.1252L43.1638 51.9233M41.9016 55.1878L41 57.5196" stroke="black" stroke-width="2" stroke-linecap="round"/>
<path d="M33.4884 38L27.9535 44.8H36.2558H41L27.9535 55L36.2558 44.8H27.9535H23L33.4884 38Z" fill="#FFDF6D"/>
<path d="M27.9535 44.8L33.4884 38L23 44.8H27.9535ZM27.9535 44.8H36.2558M36.2558 44.8L27.9535 55L41 44.8H36.2558Z" stroke="black" stroke-width="2" stroke-linecap="round"/>
</svg>
