<svg width="64" height="64" viewBox="0 0 64 64" fill="none" xmlns="http://www.w3.org/2000/svg">
<path d="M32 9L37.6859 14.5006L45.5191 13.3926L46.8859 21.1848L53.8743 24.8926L50.4 32L53.8743 39.1074L46.8859 42.8152L45.5191 50.6074L37.6859 49.4994L32 55L26.3141 49.4994L18.4809 50.6074L17.1141 42.8152L10.1257 39.1074L13.6 32L10.1257 24.8926L17.1141 21.1848L18.4809 13.3926L26.3141 14.5006L32 9Z" fill="#FFDF6D" stroke="black" stroke-width="2" stroke-linecap="round"/>
<path d="M17 32.5C17 40.8931 23.671 47.7281 32 47.9921M32.5 17C39.4954 17 45.4085 21.6342 47.3367 28" stroke="black" stroke-width="2" stroke-linecap="round"/>
</svg>
