<svg width="64" height="64" viewBox="0 0 64 64" fill="none" xmlns="http://www.w3.org/2000/svg">
<path d="M47.576 51.575H25.576C21.576 51.575 17.576 48.775 17.576 43.575C13.7427 42.9208 7.57602 42.0375 7.07603 37.075C6.57604 32.1125 8.57602 29.575 12.076 29.575C12.2427 27.8958 13.076 24.5375 15.076 24.5375C15.7427 23.0375 17.576 19.5375 22.076 19.5375L22.175 19.5375C24.0739 19.5374 26.3174 19.5373 28.5 19.9139C29.1667 18.4551 31.3 15.6375 34.5 16.0375C35 14.5375 37 11.6375 41 12.0375C45 12.4375 46.3333 14.8708 46.5 16.0375C48.8333 16.8709 53.3 19.7375 52.5 24.5375C51.7519 29.026 47.2007 29.8055 44.5896 29.6254C46.551 29.9992 49.076 32.4534 49.076 37.075C60.076 37.075 58.076 51.575 47.576 51.575Z" fill="#DEE3FF"/>
<path d="M17.576 43.575C17.576 48.775 21.576 51.575 25.576 51.575H47.576C58.076 51.575 60.076 37.075 49.076 37.075C49.076 32.0375 46.076 29.575 44.076 29.575M17.576 43.575C17.576 38.375 22.9094 37.075 25.576 37.075C25.7427 34.575 26.776 29.575 29.576 29.575C29.576 26.0375 34.576 24.5375 36.076 24.5375M17.576 43.575C13.7427 42.9208 7.57602 42.0375 7.07603 37.075C6.57604 32.1125 8.57602 29.575 12.076 29.575C12.2427 27.8958 13.076 24.5375 15.076 24.5375C15.7427 23.0375 17.576 19.5375 22.076 19.5375C23.9957 19.5375 26.2794 19.5307 28.5 19.9139M36.076 24.5375C37.576 24.5375 43.576 25.575 44.076 29.575M36.076 24.5375C34.3558 21.649 31.4848 20.4291 28.5 19.9139M44.076 29.575C46.5507 29.8958 51.7 29.3375 52.5 24.5375C53.3 19.7375 48.8333 16.8709 46.5 16.0375C46.3333 14.8708 45 12.4375 41 12.0375C37 11.6375 35 14.5375 34.5 16.0375C31.3 15.6375 29.1667 18.4551 28.5 19.9139" stroke="black" stroke-width="2" stroke-linecap="round"/>
</svg>
